<svg width="100" height="26" viewBox="0 0 100 26" fill="none" xmlns="http://www.w3.org/2000/svg">
<g clip-path="url(#clip0_59_518)">
<path d="M9.52007 13.2661C9.22235 10.5572 12.0636 8.38499 15.8641 8.41439C19.6646 8.4438 22.9873 10.6638 23.285 13.369C23.5864 16.0779 20.7489 18.2502 16.9447 18.2208C13.1442 18.1914 9.81779 15.975 9.52007 13.2661ZM23.9907 14.1078C23.6452 10.7484 19.8227 7.99905 15.4487 7.95862C11.0712 7.92187 7.80726 10.6161 8.14909 13.9755C8.49091 17.335 12.3172 20.088 16.6911 20.1247C21.065 20.1615 24.3362 17.4673 23.9907 14.1078Z" fill="white"/>
<path d="M17.3895 20.1908C15.2357 22.444 11.777 22.6277 9.66719 20.6099C7.55374 18.5883 7.5905 15.1259 9.74437 12.8728C11.8983 10.6234 15.3569 10.4359 17.4704 12.4575C19.5802 14.479 19.5434 17.9414 17.3895 20.1908ZM9.40622 12.803C6.90317 15.42 6.86274 19.4447 9.31433 21.7934C11.7696 24.1421 15.7907 23.9252 18.2937 21.3082C20.8005 18.6912 20.8409 14.6665 18.3856 12.3178C15.934 9.96912 11.913 10.186 9.40622 12.803Z" fill="white"/>
<path d="M9.63401 4.37857C14.1182 2.69884 18.5472 4.39694 19.5323 8.17542C20.521 11.9502 17.6835 16.3719 13.203 18.0516C8.71879 19.7314 4.28975 18.0296 3.3047 14.2585C2.31965 10.4837 5.1535 6.06197 9.63401 4.38224M5.47328 5.82674C0.823698 9.50964 -0.359832 14.8429 2.82688 17.7392C6.01726 20.6356 12.3723 20.0034 17.0219 16.3205C21.6715 12.6412 22.8587 7.30431 19.6646 4.40797C16.4742 1.50796 10.1192 2.14383 5.47328 5.82674Z" fill="white"/>
</g>
<path d="M94.1438 14.2031H96.9124C97.8112 14.2031 98.2605 13.8408 98.2605 13.087V12.8116C98.2605 12.0578 97.8112 11.6809 96.9124 11.6809H94.1438C93.2451 11.6809 92.8102 12.0578 92.8102 12.8116V13.087C92.8102 13.8408 93.2451 14.2031 94.1438 14.2031ZM100 12.6666V13.2464C100 13.9712 99.7536 14.551 99.2607 15.0004C98.7824 15.4643 98.1446 15.6817 97.3328 15.6817H92.8102V15.7397C92.8102 16.6239 93.2886 17.0588 94.2743 17.0588H99.6086V18.5518H94.2888C93.2451 18.5518 92.4479 18.2909 91.897 17.769C91.3462 17.2617 91.0708 16.5224 91.0708 15.5512V12.6666C91.0708 11.9418 91.3027 11.362 91.7956 10.8982C92.2594 10.4343 92.9117 10.2024 93.738 10.2024H97.3183C98.1301 10.2024 98.7824 10.4343 99.2607 10.8982C99.7536 11.362 100 11.9418 100 12.6666Z" fill="white"/>
<path d="M86.5674 10.2749H89.7419V11.7679H86.5674V18.5518H84.8135V10.1299C84.8135 9.33265 85.0889 8.68036 85.6687 8.17302C86.205 7.69466 87.0168 7.44824 88.1184 7.44824H89.7419V8.95577H88.2199C87.1472 8.95577 86.5964 9.40513 86.5674 10.2749Z" fill="white"/>
<path d="M81.3636 18.5518V10.2024H83.1321V18.5518H81.3636ZM83.393 8.52091C83.393 8.83981 83.277 9.10073 83.0596 9.28917C82.8276 9.4921 82.5522 9.57908 82.2333 9.57908C81.9144 9.57908 81.6535 9.4921 81.4506 9.28917C81.2187 9.10073 81.1172 8.83981 81.1172 8.52091C81.1172 8.20201 81.2187 7.94109 81.4506 7.73815C81.6535 7.54971 81.9144 7.44824 82.2333 7.44824C82.5522 7.44824 82.8276 7.54971 83.0596 7.73815C83.277 7.94109 83.393 8.20201 83.393 8.52091Z" fill="white"/>
<path d="M74.3732 17.0298H79.8814V18.5518H74.2572C71.7785 18.5518 70.5464 17.4791 70.5464 15.3338V7.44824H72.3003V15.2178C72.3003 16.4354 72.9816 17.0298 74.3732 17.0298Z" fill="white"/>
<path d="M54.4653 18.5518V7.44824H60.3795C61.742 7.44824 62.7857 7.82512 63.5105 8.56439C64.2932 9.36164 64.6846 10.3763 64.6846 11.6084V14.4206C64.6846 15.6382 64.2932 16.6529 63.5105 17.4501C62.7857 18.1894 61.742 18.5518 60.3795 18.5518H54.4653ZM56.2048 8.95577V17.0442H60.336C61.1477 17.0442 61.8 16.7833 62.2929 16.2325C62.7277 15.7397 62.9451 15.1163 62.9451 14.3336V11.6809C62.9451 10.8982 62.7277 10.2604 62.3073 9.76752C61.8145 9.23119 61.1477 8.95577 60.336 8.95577H56.2048Z" fill="white"/>
<path d="M52.3051 7.44824V8.95577H46.3185C45.2169 8.95577 44.6661 9.37614 44.6661 10.2024V10.9561C44.6661 11.7824 45.2024 12.1883 46.304 12.1883H49.522C50.5947 12.1883 51.4064 12.4347 51.9572 12.913C52.5371 13.4204 52.827 14.0727 52.827 14.8699V15.8991C52.827 16.6964 52.5371 17.3487 51.9572 17.8415C51.4064 18.3199 50.5947 18.5518 49.5075 18.5518H43.3325V17.0442H49.4206C50.5222 17.0442 51.073 16.6384 51.073 15.8121V14.9279C51.073 14.1017 50.5222 13.6813 49.4206 13.6813H46.2026C45.1154 13.6813 44.3037 13.4494 43.7673 12.971C43.1875 12.4782 42.9121 11.8259 42.9121 11.0286V10.1299C42.9121 9.33265 43.1875 8.68036 43.7673 8.17302C44.3037 7.69466 45.1154 7.44824 46.2026 7.44824H52.3051Z" fill="white"/>
<path d="M41.3098 7.44824V18.5518H39.5704V12.6956H32.9894V18.5518H31.25V7.44824H32.9894V11.1736H39.5704V7.44824H41.3098Z" fill="white"/>
<defs>
<clipPath id="clip0_59_518">
<rect width="25" height="25" fill="white" transform="translate(0 0.5)"/>
</clipPath>
</defs>
</svg>
